<svg width="128" height="128" viewBox="0 0 128 128" fill="none" xmlns="http://www.w3.org/2000/svg">
<rect width="128" height="128" fill="#F76808"/>
<path d="M29.1121 81H24.7921V45.96H29.1121V60.936H40.3441V45.96H44.6641V81H40.3441V64.872H29.1121V81ZM53.4294 81V45.96H59.1894L69.8934 75.96C69.5734 72.12 69.4134 68.68 69.4134 65.64V45.96H73.5894V81H67.8294L57.1734 51C57.4614 54.84 57.6054 58.28 57.6054 61.32V81H53.4294ZM82.2106 81V45.96H87.9706L98.6746 75.96C98.3546 72.12 98.1946 68.68 98.1946 65.64V45.96H102.371V81H96.6106L85.9546 51C86.2426 54.84 86.3866 58.28 86.3866 61.32V81H82.2106Z" fill="white"/>
</svg>
